<?xml version="1.0" encoding="UTF-8"?><svg id="a" xmlns="http://www.w3.org/2000/svg" xmlns:xlink="http://www.w3.org/1999/xlink" viewBox="0 0 1541.091704115 141.31486577" overflow="visible"><defs><style>.e{filter:url(#c);}.f{fill:#fff;}</style><filter id="c" x="-75.454147942" y="-75.259455356" width="1692" height="292" filterUnits="userSpaceOnUse"><feOffset dx="0" dy="0"/><feGaussianBlur result="d" stdDeviation="25"/><feFlood flood-color="#fff" flood-opacity=".75"/><feComposite in2="d" operator="in"/><feComposite in="SourceGraphic"/></filter></defs><g id="b"><g class="e"><path class="f" d="M1540.231351141,73.743143296h-146.100829295c-17.35512024,0-32.656953639-.048964533-46.406150041-.130998189,1.49127849-2.241586316,3.461642421-5.226144117,5.921985153-8.978072299,2.677542953-4.078117563,5.450236054-8.347869303,8.318968557-12.811922981,2.867843249-4.46094129,5.670770977-8.763595417,8.413229451-12.907517756,2.740679967-4.141254577,4.876667404-7.425268568,6.406183804-9.848484957,2.295163853-3.567241301,4.428483529-6.755215889,6.406183804-9.561256005,1.975032514-2.802483101,4.046104429-5.22569949,6.214994254-7.266536779,2.166222064-2.037724901,4.523633677-3.695738463,7.074902602-4.971817552,2.548601164-1.272522074,5.608523216-2.166222064,9.178876905-2.677098326v-1.912340126h-44.172789322v1.912340126c1.783842964.256994325,3.633490703.54377865,5.545386202.860797602,1.912784753.319686713,3.663725329.797660587,5.259046504,1.433921625,1.592653414.639373425,2.898077876,1.529961026,3.919830401,2.677098326,1.019084764,1.147581927,1.5295164,2.742903101,1.5295164,4.780628002,0,1.276079089-.256994325,2.677098326-.7647582,4.207059353-.510431636,1.529961026-1.116902673,3.029687426-1.816745351,4.493843678-.701621186,1.466824012-1.433476998,2.868287876-2.199124451,4.207059353-.7647582,1.33832685-1.466379385,2.518811164-2.103085049,3.537451301-1.1471373,2.040837289-2.838497876,4.846432778-5.067856954,8.414118705-2.231137585,3.570353689-4.589438452,7.299439166-7.074902602,11.186367179-2.486353403,3.890485028-4.941582926,7.714720654-7.362131554,11.473596131-2.423216389,3.761987865-4.464053678,6.854367679-6.118954852,9.27447168-2.040837289-3.441856526-4.23996174-7.075347229-6.597373354-10.900027481-2.360968628-3.824235626-4.685477854-7.553321104-6.979752454-11.186367179-2.295163853-3.633490703-4.398248903-7.075347229-6.311033656-10.326458832-1.911895499-3.250666976-3.570353689-6.023360077-4.971817552-8.318079303-2.039948035-3.441856526-3.985635176-6.851255291-5.8317259-10.23041943-1.849647739-3.376496377-2.772693101-5.895307541-2.772693101-7.553321104,0-1.655345801.507763875-2.964327278,1.5295164-3.920275028,1.019084764-.95594775,2.357411614-1.721150576,4.015869803-2.294719226,1.654901174-.57356865,3.442301153-.986182376,5.354196652-1.243176702,1.911895499-.253881937,3.824680253-.445071487,5.736575752-.57356865v-1.912340126h-57.941104679v1.912340126c2.551268925.128497163,4.810862629.830562975,6.788562904,2.103529676,1.975032514,1.276079089,3.982967415,2.996785039,6.023804704,5.163007102,2.037280274,2.169334452,4.045215175,4.780628002,6.02291545,7.840550055,1.975032514,3.059477426,4.174156965,6.438641565,6.597373354,10.134824655,1.273411328,1.912340126,2.868732503,4.398248903,4.780628002,7.457726329,1.912784753,3.059477426,3.950065027,6.34304679,6.119844106,9.84804033,2.166222064,3.507661301,4.365346515,7.108249616,6.5964841,10.804432706,2.229359078,3.698850851,4.270196367,7.045112602,6.119844106,10.03922988,1.256293194,2.039336673,2.370972733,3.839241782,3.363602199,5.434896427-55.040914826-.546279676-83.568952283-1.584427817-133.172414076-1.584427817-.701176559,0-1.348775581.080366305-1.968140797.19118955h-36.381370534c-.00033347-.105265409-.004890895-.207529587-.004890895-.31301731,0-9.050379742,1.272522074-17.688145758,3.824680253-25.911074914,2.548601163-8.222484528,6.182091866-15.489021307,10.899582855-21.799610336,4.714823227-6.310144402,10.451398979-11.345098969,17.21061651-15.106642207,6.755660516-3.758875477,14.341884007-5.640980977,22.755113459-5.640980977,7.90368707,0,15.041726686,1.33832685,21.417675863,4.015425176,6.373281416,2.677098326,11.598536279,6.185204254,15.680210857,10.517648381,3.185306828,3.316471751,6.182091866,7.523531104,8.987687355,12.620733431,2.802927728,5.100314715,4.906012777,10.517203755,6.310144402,16.254224134h2.295163853V4.971817552h-1.72070595c-1.658458189,2.169334452-3.059922053,4.015869803-4.207059353,5.545830829-1.148026553,1.5295164-1.849647739,2.294719226-2.103974303,2.294719226-.256994325,0-1.467268639-.669608052-3.633490703-2.007934901-2.168889825-1.338771477-5.25815725-2.802927728-9.274027053-4.398248903-4.015869803-1.592653414-8.957452729-3.059477426-14.820302509-4.398248903-5.864628288-1.33832685-12.620288804-2.007934901-20.269649309-2.007934901-12.749230594,0-23.586565688,1.816745351-32.508448267,5.450236054-8.924550341,3.633046076-16.444969057,8.446576466-22.563923909,14.437478782-4.336001142,4.206614726-7.935700203,8.670668404-10.804432706,13.385491631-2.868732503,4.717935615-5.100759342,9.370066455-6.692523502,13.959504907-1.596210429,4.589438452-2.710445341,8.957897355-3.347151005,13.099151933-.639373425,4.143922338-.95594775,7.810315429-.95594775,10.995177629,0,.234651826.012560709.461744994.01422806.69539641h-8.04141024c.008892537-.487755666.034569738-.968841929.034569738-1.460154609,0-9.178876905-1.595321175-17.97537471-4.780628002-26.389048788-3.187974589-8.414118705-7.777413041-15.838942646-13.768315357-22.278028838-5.993570077-6.435529177-13.289896856-11.568746279-21.895205111-15.393426532-8.605308255-3.824680253-18.327519183-5.736575752-29.161297263-5.736575752-9.943635105,0-19.409740962,1.625111175-28.397428317,4.876222777-8.987687355,3.250666976-16.827348157,7.905910204-23.520760912,13.959060281-6.692523502,6.056707092-12.017374781,13.451741033-15.967439809,22.182434063-3.815231932,8.42951391-5.769366983,17.908069319-5.901976944,28.414546451-35.55347532-1.241287037-64.855052358-2.807651888-90.607840109-3.664169956v-10.886466362c0-3.824680253.030234627-7.520863343.096039402-11.091217031.06224776-3.567685927.125384775-7.200732003.19118955-10.900027481.06224776-3.695738463.158287162-7.774300653.286339698-12.238354331.125384775-3.441856526.923045362-6.214549627,2.390314001-8.318079303,1.464600878-2.103529676,3.218209215-3.729085478,5.259046504-4.876222777,2.037280274-1.147581927,4.207059353-1.975032514,6.501333952-2.485908776,2.295163853-.508208501,4.270196367-.890587601,5.927765302-1.147581927v-1.912340126h-61.000137478v1.912340126c3.313359363.3823791,6.468431564,1.147581927,9.465216603,2.294719226,2.994117278,1.147581927,5.384431279,2.805595489,7.170942004,4.971817552.7647582.893699989,1.33832685,2.103529676,1.72070595,3.633490703.383268354,1.5295164.669608052,3.283569364.860797602,5.258601877.19118955,1.978144902.287228952,4.111464578.287228952,6.406183804v38.849605393c-4.153815286-.065415727-8.22515229-.101263767-12.225460152-.101263767-2.614294782,3.399783709-5.677996163,5.009944306-9.981317231,5.689334148.004335112-.344696973.024343321-.683169171.024343321-1.029644652,0-9.178876905-1.595321175-17.97537471-4.780628002-26.389048788-3.187974589-8.414118705-7.777413041-15.838942646-13.768315357-22.278028838-5.993570077-6.435529177-13.289896856-11.568746279-21.895205111-15.393426532-8.605308255-3.824680253-18.327519183-5.736575752-29.161297263-5.736575752-9.943190478,0-19.409296335,1.625111175-28.39698369,4.876222777-8.987242728,3.250666976-16.827792784,7.905910204-23.520760912,13.959060281-6.692523502,6.056707092-12.016930155,13.451741033-15.966995182,22.182434063-3.953177415,8.733360791-5.928209929,18.581401121-5.928209929,29.544120989,0,.139168207.008836959.274279194.009503899.413113932-4.886671509-.575124844-8.245827439-2.156940478-11.07671108-5.837561628-3.586749304,0-7.23196704.029345373-10.940933153.082422704V28.110199365c0-2.037724901.062692387-4.045659802.19118955-6.023360077.125384775-1.975032514.316574325-3.758875477.57356865-5.354641279.253881937-1.592208787.636261037-2.835385488,1.1471373-3.728640851,1.401463864-2.548601164,3.567685927-4.493843678,6.501778579-5.832615154,2.930980263-1.33832685,5.928209929-2.199124451,8.987687355-2.581503551v-1.912340126h-57.558725579v1.912340126c2.930980263.128497163,5.861960527.606471038,8.796053178,1.434366251,2.93142489.830562975,5.545830829,2.963882651,7.840550055,6.405739177,1.018640137,1.658458189,1.625111175,3.794890253,1.816300725,6.406183804.191634177,2.614405939.349921339,5.133217103.478418502,7.553321104.125384775,4.207059353.19118955,7.969047218.19118955,11.282406581v28.825937453c-22.020645464.717738909-46.6301864,1.969196786-75.534100289,3.10027194v-20.452613262c0-4.714823227.02979-9.65685078.095594775-14.819857882.062692387-5.163451729.158287162-9.973869731.286784325-14.437478782.125829401-2.93142489.765202827-5.354641279,1.912340126-7.266536779,1.147581927-1.912340126,2.548601164-3.409398765,4.207059353-4.493843678,1.655345801-1.081777151,3.504548913-1.879437739,5.545386202-2.390314001,2.037724901-.508208501,3.950065027-.890587601,5.737020379-1.147581927v-1.912340126h-56.985156929v1.912340126c3.313359363.3823791,6.277242014,1.051987152,8.891647953,2.007934901,2.611738178.95594775,4.810862629,2.518811164,6.597373354,4.685033227.765202827.893255362,1.338771477,2.136432064,1.721150576,3.729085478.3823791,1.595321175.669163425,3.379164139.860352975,5.354196652.19118955,1.977700275.286784325,4.111464578.286784325,6.405739177v43.586270914c-24.76304836.830562975-52.528661908,1.485831811-84.158082873,1.632892145v-34.127946028c0-5.990457689.02979-11.727478068.095594775-17.210171883.062692387-5.480026054.095594775-9.815137942.095594775-13.003557158h12.620733431c1.783842964,0,3.567685927.032902388,5.354196652.096039402,1.783842964.065360148,3.88737264.095594775,6.310589029.095594775,4.84332039.128497163,8.826287805.606471038,11.951570006,1.433921625,3.122169813.830562975,6.023804704,2.518811164,8.70090303,5.067412327,1.018640137.893699989,2.228914451,2.264929227,3.633046076,4.111464578,1.401463864,1.849647739,2.835385488,3.85758264,4.302654128,6.023804704,1.464156251,2.168889825,2.898077876,4.493399051,4.302654128,6.979307827,1.401019237,2.485908776,2.611293551,4.876222777,3.633046076,7.170942004l1.721150576-.57356865-6.119399479-37.288631643c-2.934092651.893255362-5.76947814,1.625111175-8.509268853,2.199124451-2.742903101.57356865-6.214994254.92615775-10.42160898,1.051542525-4.846432778,0-9.178876905.032902388-13.003557158.095594775-3.824680253.065804775-7.523531104.128497163-11.091217031.19118955-3.570353689.065804775-7.266536779.095594775-11.090772404.095594775h-36.332683893c-3.570798315,0-7.266536779-.02979-11.091217031-.095594775-3.824680253-.062692387-8.159792141-.158287162-13.003112531-.286784325-4.717935615-.125384775-8.31852393-.3823791-10.804432706-.7647582-2.485908776-.382823727-5.19590949-.890587601-8.126889753-1.529961026l-5.737020379,36.332683893,1.721150576.57356865c.7647582-2.294719226,1.816745351-4.65213084,3.155072201-7.075347229,1.338771477-2.420104001,2.739790713-4.684588601,4.207059353-6.788118277,1.464156251-2.103529676,2.868287876-4.045659802,4.207059353-5.832615154,1.33832685-1.783842964,2.515698776-3.122169813,3.537451301-4.015425176,2.677098326-2.54904579,5.575620829-4.332444127,8.70090303-5.354641279,3.122169813-1.018640137,7.105137228-1.592208787,11.951570006-1.72070595,2.420104001,0,4.556536065-.030234627,6.406183804-.095594775,1.846535351-.063137014,3.600143688-.096039402,5.258601877-.096039402h12.620733431v64.373521468h-85.175166816c.045518675-3.078929851.101152611-6.100169367.175849923-9.013475713.19118955-7.457726329.4121691-13.92660252.669163425-19.409296335.253881937-5.862405154.508208501-11.378001356.7647582-16.541008459.254326564-5.163451729.827895214-8.70090303,1.721150576-10.613243156,1.529961026-3.695738463,3.729085478-6.435973804,6.597373354-8.222484528,2.868287876-1.783842964,6.660065741-2.994117278,11.378001356-3.633490703v-1.912340126h-47.423900924v1.912340126c6.118954852.893255362,10.80398808,2.456118777,14.055099682,4.685033227,3.250666976,2.232026839,5.512483815,5.133217103,6.788562904,8.70090303,1.018640137,2.677098326,1.592208787,6.34304679,1.72070595,10.995177629.125829401,4.655243228.19118955,9.531466005.19118955,14.629112959v28.422772048h-6.621827831c-.305514231-.117048021-.628702381-.19118955-.964840287-.19118955-7.903631491,0-15.765356901.043406697-23.785814099.116770129L275.791259271,2.677098326h-38.818592669v1.912340126c2.037724901.256994325,4.174156965.669163425,6.406183804,1.243176702,2.228914451.57356865,4.302654128,1.5295164,6.214549627,2.868287876,1.912340126,1.33832685,3.567685927,3.187974589,4.972262179,5.545386202,1.401019237,2.360524002,2.294719226,5.38709904,2.677098326,9.08328213.125384775,3.698850851.19118955,6.821465291.19118955,9.370066455v23.329571362c0,5.930377485-.033736063,11.581306988-.09509457,16.988692129-14.660681466.193357106-30.744113307.373153093-48.777789714.505429583-1.935738615-5.216473482-3.90360152-10.529097523-5.91225894-15.964605313-3.250666976-8.796053178-6.663178129-17.942027696-10.23041943-27.440591313-3.570798315-9.49545123-7.332341554-19.534681109-11.282406581-30.118134266h-1.529961026c-.510876263.893699989-1.242732075,2.040837289-2.199124451,3.442301153-.95594775,1.404131625-2.135987437,2.868287876-3.537451301,4.398248903-1.404131625,1.5295164-3.029687426,2.996785039-4.876222777,4.397804276-1.849647739,1.404576252-3.920275028,2.614405939-6.214994254,3.633490703l1.912340126,4.207059353c-3.059477426,7.140707377-6.310144402,14.819857882-9.752445555,23.042342411-3.441856526,8.222929155-6.917060066,16.382721296-10.42160898,24.477153289-.893922303,2.063235367-1.781064046,4.110908794-2.662147748,6.14474321H.860686445c-1.147581927,0-1.147581927,1.721595203,0,1.721595203h140.247872462c-2.316894991,5.348138611-4.593384516,10.603405787-6.822910329,15.749572647-3.316471751,7.648471252-6.310144402,14.469936543-8.987242728,20.460838859-2.934092651,6.501333952-5.420001428,11.410903744-7.457726329,14.724263107-2.040837289,3.316916378-3.508105928,5.420001428-4.398248903,6.310144402-.3823791.511320889-1.754052964,1.467268639-4.111464578,2.868732503-2.360524002,1.404131625-5.192797102,2.294274599-8.50971348,2.677542953v2.103085049h40.730932796v-1.911895499c-1.658013562-.254326564-3.412066526-.541555516-5.258601877-.860797602-1.849203112-.316574325-3.570353689-.827895214-5.163007102-1.5295164-1.595321175-.699842678-2.901190264-1.592653414-3.920275028-2.677542953-1.021752525-1.081332524-1.5295164-2.453451015-1.5295164-4.111019951,0-2.802927728,1.33832685-7.649360505,4.015869803-14.533073557,1.783398337-4.461385917,3.567241301-8.892537207,5.354196652-13.290786109,1.156029837-2.850391645,6.340212293-15.60229,10.558387318-25.97954745h1.352277017c14.25584871,0,27.504784316.033180279,39.899758459.090370409,3.694515739,9.689530854,8.788383365,23.138270656,9.955362138,26.367595542,1.654901174,4.589438452,3.122169813,8.766263179,4.397804276,12.525138656,1.272966701,3.761543239,2.261816839,6.949517827,2.964327278,9.561256005.698953424,2.614405939,1.051542525,4.494288304,1.051542525,5.641425604,0,1.786510725-.606471038,3.250222349-1.816745351,4.398248903-1.212942075,1.1471373-2.614405939,2.040837289-4.206614726,2.676653699-1.595765802.639373425-3.125726828,1.084889539-4.589438452,1.339216103-1.467268639.256105072-2.390314001.3823791-2.772693101.3823791v1.911895499h90.830598166v-1.911895499c-5.228811878-.636705664-9.339831828-1.688692816-12.333949106-3.155961455-2.996785039-1.463711624-5.19590949-3.662836076-6.597373354-6.5964841-1.275634462-2.549490417-2.07329505-6.43641843-2.390314001-11.665230308-.319686713-5.226144117-.477973875-11.090772404-.477973875-17.59299561v-23.199184536c18.738132089.253492889,35.160480754.524770852,50.438193146.739080999,7.509469779,8.810336816,15.35357685,18.00583165,23.565946117,27.623999893,8.92188258,10.45406674,18.802825297,21.928107499,29.640160391,34.420343767,1.272522074,1.275189835,2.420104001,1.911895499,3.441856526,1.911895499.636261037,0,1.114679539-.160954923,1.434366251-.477529248.316574325-.317463578.477973875-.732745066.477973875-1.243176702v-12.429988508c0-4.589438452-.032902388-9.208222278-.095594775-13.863465506-.065804775-4.652575467-.095594775-9.209111531-.095594775-13.673165209v-12.237465077c0-3.366047646.01928569-6.623773074.048964533-9.822251972h85.237136684v4.65924487c0,3.824680253-.032902388,7.523086477-.095594775,11.090327778-.065804775,3.570353689-.128497163,6.821465291-.19118955,9.752445555-.065804775,2.934537278-.095594775,5.291948892-.095594775,7.075791856,0,2.039948035-.032902388,4.143922338-.095594775,6.310144402-.065804775,2.168889825-.19118955,4.176824726-.3823791,6.023804704-.19118955,1.849647739-.448183875,3.507216674-.765202827,4.971817552-.319686713,1.466379385-.797660587,2.518366537-1.433921625,3.155072201-2.934092651,3.316027124-5.928209929,5.420001428-8.987687355,6.310144402-3.059477426.893699989-6.247896642,1.530405653-9.561256005,1.912784753v1.911895499h62.148164032v-1.911895499c-2.805595489-.508653128-5.96066769-1.273411328-9.46566123-2.295163853-3.507661301-1.019084764-6.214994254-2.930980263-8.126889753-5.736575752-1.022197152-1.401463864-1.625555801-3.791777865-1.816745351-7.170942004-.19118955-3.376496377-.286784325-6.913947678-.286784325-10.613243156v-35.413806908c31.629420964.147060334,59.395034512.802329169,84.158082873,1.632892145v3.185695876c0,3.824680253-.032457761,7.553321104-.095594775,11.186367179-.065360148,3.632601449-.128497163,6.979752454-.19118955,10.038785253-.065804775,3.059922053-.095594775,5.483138442-.095594775,7.266981405,0,2.040837289-.065804775,4.176824726-.19118955,6.406183804-.128497163,2.232026839-.286784325,4.302209501-.477973875,6.214105-.19118955,1.912784753-.448183875,3.60414533-.7647582,5.067856954-.319686713,1.467268639-.7349682,2.518366537-1.243176702,3.155072201-1.5295164,1.786510725-3.761543239,3.284013991-6.692968129,4.494288304-2.934092651,1.212942075-5.993570077,2.072850423-9.178432278,2.581503551v1.911895499h56.411143653v-1.911895499c-2.677098326-.254326564-5.420001428-.956837003-8.222484528-2.103974303-2.805595489-1.1471373-4.971817552-2.802927728-6.501778579-4.971817552-1.021752525-1.401463864-1.595765802-3.824680253-1.721150576-7.266092152-.128497163-3.442301153-.19118955-7.00998708-.19118955-10.709282558v-33.785638924c28.903913889,1.131075154,53.513454825,2.382533031,75.534100289,3.10027194v19.785784129c0,4.464053678-.065804775,8.796497805-.19118955,13.003557158,0,1.5295164-.032902388,3.124837575-.095594775,4.780628002-.065804775,1.658458189-.16139955,3.250222349-.286784325,4.780628002-.128497163,1.5295164-.287228952,2.867843249-.478418502,4.015869803-.19118955,1.1471373-.415281488,1.911895499-.669163425,2.294274599-1.021752525,1.658458189-3.125282201,3.155072201-6.310589029,4.494288304-3.187974589,1.33832685-7.140707377,2.199124451-11.855975231,2.581503551v1.911895499h58.706307506v-1.911895499c-3.316471751-.3823791-6.375949177-1.082221778-9.178876905-2.103974303-2.805595489-1.019084764-5.037622328-2.802927728-6.692968129-5.354196652-.7647582-1.1471373-1.242732075-3.280456976-1.433921625-6.406183804-.19118955-3.122169813-.286784325-6.531568578-.286784325-10.229974803,0-4.589438452-.032902388-8.796497805-.095594775-12.621178058-.065804775-3.824680253-.095594775-7.520418716-.095594775-11.090772404v-7.417876646c3.708966112.053077331,7.354183848.082422704,10.940933153.082422704,2.877458305-3.741145981,6.297416958-5.316181056,11.315864753-5.867296049.603636541,7.974882946,2.386701408,15.409377521,5.392768032,22.285587494,3.758430851,8.605308255,8.891647953,16.000342196,15.393426532,22.182434063,6.501778579,6.184759627,14.084889682,10.96538763,22.756002713,14.341884007,8.667556016,3.379164139,17.846877547,5.066967701,27.536186088,5.066967701,9.815137942,0,19.089164995-1.72070595,27.822525786-5.163007102,8.73069303-3.442301153,16.380053535-8.34831393,22.947192262-14.724263107,6.564470966-6.373281416,11.760380456-13.893700132,15.585060709-22.564813163,2.932314144-6.644726114,4.72994054-13.743972037,5.413998965-21.289678905,4.459162782.651989712,7.60589823,2.255203014,10.279550698,5.732185062,3.998751669,0,8.068421321-.035848041,12.2204581-.101208189-.006113619,3.412566732-.034347425,6.759717736-.09103735,10.018165682-.065804775,3.632601449-.128052536,6.979752454-.19118955,10.038785253-.065804775,3.059922053-.095150148,5.483138442-.095150148,7.266981405,0,2.040837289-.096039402,4.111019951-.287228952,6.214994254-.19118955,2.103085049-.415281488,4.111019951-.669608052,6.02291545-.256994325,1.912784753-.606471038,3.603256076-1.051097898,5.067856954-.448183875,1.467268639-.988850137,2.581503551-1.625555801,3.346261751-1.786510725,2.040837289-4.23996174,3.633490703-7.362131554,4.780628002-3.125726828,1.1471373-6.280799029,1.977700275-9.466105857,2.486353403v1.911895499h122.766811664l7.075791856-39.392161319-1.912784753-.57356865c-1.5295164,3.823790999-3.124837575,7.490184089-4.780628002,10.994733003-1.658458189,3.508105928-3.699295478,6.759217531-6.118954852,9.752445555-2.423216389,2.997674292-5.324851279,5.641425604-8.700458403,7.936589457-3.380053392,2.294274599-7.619125879,4.143922338-12.71721746,5.545386202-2.168889825.639373425-4.655243228,1.1471373-7.457281702,1.5295164-2.805595489.3823791-5.545386202.669608052-8.222929155.860797602-2.676653699.19118955-5.132772476.319242086-7.362131554.3823791-2.232026839.065804775-3.85758264.095150148-4.875778151.095150148-2.552158178,0-5.100759342-.158287162-7.649360505-.477529248-2.552158178-.316574325-4.909569792-.698953424-7.075791856-1.1471373-2.168889825-.445516114-4.014980549-.986182376-5.545386202-1.625555801-1.5295164-.636705664-2.551268925-1.273411328-3.059032799-1.912784753-1.148026553-1.783842964-1.816745351-4.523633677-2.007934901-8.222039902-.19118955-3.696627717-.353033727-7.58355573-.478418502-11.665230308,0-4.332444127-.032902388-8.252274528-.095150148-11.760380456-.065804775-3.504548913-.096039402-6.913947678-.096039402-10.229974803v-7.774967593c25.834599094-.859241408,55.238884935-2.432942601,90.945089582-3.676063725.710736036,7.388253382,2.468568329,14.296921116,5.278387773,20.725058371,3.758875477,8.605308255,8.891647953,16.000342196,15.393871159,22.182434063,6.501333952,6.184759627,14.084889682,10.96538763,22.755113459,14.341884007,8.668445269,3.379164139,17.847322174,5.066967701,27.536630715,5.066967701,9.815582569,0,19.089609622-1.72070595,27.822970413-5.163007102,8.73069303-3.442301153,16.380053535-8.34831393,22.947192262-14.724263107,6.564470966-6.373281416,11.760380456-13.893700132,15.585060709-22.564813163,2.982112352-6.757716915,4.785074271-13.987738713,5.442010457-21.677337949h8.485259003c.525548949,8.528610122,2.197790571,16.368604393,5.060965238,23.494083301,3.504548913,8.733360791,8.53950348,16.128394732,15.106642207,22.182434063,6.564470966,6.056707092,14.628223705,10.646145544,24.18947971,13.768315357,9.561256005,3.124837575,20.395923338,4.684588601,32.508448267,4.684588601,6.119844106,0,12.238798958-.639373425,18.35775381-1.911895499,6.118954852-1.273411328,11.694575681-2.835830115,16.732198009-4.685477854,5.034954567-1.846090724,9.30426168-3.662836076,12.812367608-5.4493468,3.504548913-1.783842964,5.703673365-3.059922053,6.597373354-3.824680253v-27.919009815c0-2.930980263.06224776-5.861960527.19118955-8.796053178.125384775-2.930980263.63581641-5.097202327,1.5295164-6.501333952,1.1471373-1.783842964,2.994117278-3.089712053,5.545386202-3.920275028,2.548601164-.827450587,4.906012777-1.368561476,7.075791856-1.625555801v-.216088654c14.919454299-.247268113,31.108762911-.49842671,50.615654841-.687281969,1.179150434,1.888441433,1.89666703,3.022962445,2.142879153,3.3892794,0,7.012654841-.032902388,12.972877904-.096039402,17.878890681-.065804775,4.909569792-.160954923,9.149531532-.286339698,12.71721746,0,2.039948035-.032902388,4.143922338-.096039402,6.310144402-.065804775,2.168889825-.19118955,4.207059353-.3823791,6.118954852-.19118955,1.912784753-.448183875,3.633490703-.7647582,5.163007102-.320131339,1.530405653-.797660587,2.614405939-1.434366251,3.251111603-2.805595489,3.187974589-5.450236054,5.19590949-7.935700203,6.023804704-2.486353403.830562975-5.38709904,1.434366251-8.700458403,1.816745351v1.911895499h58.897052429v-1.911895499c-2.805595489-.508653128-5.736575752-1.210274314-8.796497805-2.103974303-3.059922053-.890142974-5.545386202-2.739790713-7.457281702-5.545386202-1.022641779-1.401463864-1.625555801-3.854025625-1.816745351-7.362131554-.19118955-3.504548913-.287228952-7.105137228-.287228952-10.804432706v-37.032971198c13.849570916-.083423115,29.274899425-.133388058,46.79430929-.133388058h146.100829295c1.1471373,0,1.1471373-1.721595203,0-1.721595203ZM146.96151574,73.743143296h-.652489918c1.993817999-4.905067945,3.692514918-9.084782746,4.517631215-11.117005389,2.611738178-6.435529177,5.002052179-12.205451943,7.170942004-17.305766658,2.166222064-5.097202327,3.982967415-9.432758842,5.450236054-13.003112531,1.463711624-3.567685927,2.581503551-6.182091866,3.346261751-7.840105428,1.147581927,2.805595489,2.581503551,6.405739177,4.302654128,10.80398808s3.633046076,9.24468168,5.736575752,14.533073557c2.103529676,5.291504265,4.26975174,10.804432706,6.501778579,16.541008459.555394527,1.429419778,1.56842125,4.070670063,2.801705004,7.300939782-12.186166253.055189309-25.197671116.08698013-39.175294568.08698013ZM257.242760538,80.027943967c-.128497163,7.457281702-.319686713,13.928825654-.574013277,19.408407081-.256549698,7.266981405-.639373425,13.514878047-1.1471373,18.74013291-.510876263,5.228811878-1.658458189,9.178876905-3.441856526,11.856419858-1.786955352,2.805595489-4.207059353,4.81353039-7.266981405,6.023804704-.972565679.385602645-1.945186936.713459376-2.917752614,1.014749652-.64698766-.211864699-1.271410507-.450073539-1.861541508-.728409954-2.169334452-1.019084764-3.986079803-2.199124451-5.450236054-3.537451301-1.466824012-1.33832685-2.647308327-2.644640565-3.537451301-3.919830401-.893255362-1.273411328-1.467268639-2.166222064-1.721150576-2.677542953-1.5295164-3.313359363-2.901190264-6.277242014-4.111464578-8.891647953-1.212942075-2.611738178-2.518366537-5.895752168-3.919830401-9.848484957-3.059477426-8.031739605-6.119399479-16.158629359-9.178876905-24.380224633-.907038795-2.437889075-1.82524884-4.909069587-2.749183456-7.397368232,17.692091822.131609551,33.501300046.308682198,47.933276571.498926916-.017729496,1.287417074-.034680895,2.581837021-.055800671,3.838519264ZM260.875806614,18.74013291c8.668000642,9.689753168,16.890485171,19.059819622,24.668342839,28.110199365,7.119587601,8.290623595,14.381289063,16.776216068,21.771598844,25.438269826-14.143302536.204250464-29.324975526.450573745-46.439941683.682113182V18.74013291ZM366.432001768,108.615227953l-26.794604063-31.316737125c6.44592233.049687052,12.813090126.078143171,19.207935945.078143171.367317365,0,.722185178-.069528525,1.051598103-.19118955h6.535070015v31.429783504ZM816.134277724,94.846912595c-1.977700275,8.031739605-4.941582926,15.268486384-8.891647953,21.704904815-3.953622042,6.438196938-8.892537207,11.697243442-14.820302509,15.775361005-5.927765302,4.081674578-12.907517756,6.119844106-20.939257361,6.119844106-8.030405725,0-15.075962954-1.846979978-21.129557657-5.546275456-6.056707092-3.695738463-11.091217031-8.604419001-15.107086834-14.724263107-4.015425176-6.118954852-7.045112602-13.193857454-9.082837503-21.225597059-2.040837289-8.031294978-3.059922053-16.379608908-3.059922053-25.050277312,0-8.285176916.923489989-16.475203683,2.772693101-24.572303437,1.846535351-8.093987366,4.715267854-15.328066384,8.605308255-21.704015561,3.88737264-6.373281416,8.859190192-11.569190906,14.915452657-15.585060709,6.05403933-4.015425176,13.22409208-6.023360077,21.512826011-6.023360077,8.156679753,0,15.231582355,2.007934901,21.226041686,6.023360077,5.990013063,4.015869803,10.994733003,9.24468168,15.010602805,15.680655484,4.015869803,6.439086192,7.00998708,13.610028195,8.987687355,21.512826011,1.975032514,7.905910204,2.963882651,15.746015632,2.963882651,23.520760912,0,8.031294978-.988850137,16.063034584-2.963882651,24.093440308ZM1002.902458174,47.32830615c1.846979978-8.093987366,4.714823227-15.328066384,8.605308255-21.704015561,3.886928013-6.373281416,8.858745566-11.569190906,14.915452657-15.585060709,6.053150077-4.015425176,13.22409208-6.023360077,21.512826011-6.023360077,8.15712438,0,15.232026982,2.007934901,21.226486313,6.023360077,5.990013063,4.015869803,10.994733003,9.24468168,15.010602805,15.680655484,4.015869803,6.439086192,7.00998708,13.610028195,8.987687355,21.512826011,1.975032514,7.905910204,2.963882651,15.746015632,2.963882651,23.520760912,0,.423006879-.014005746.84595818-.019563582,1.268965059h-17.493399193c-29.111721368,0-55.060811878-.4399027-78.468637568-1.083444502.06869485-7.957097871.981291481-15.827271191,2.759354295-23.610686695ZM1093.16082157,94.846912595c-1.977700275,8.031739605-4.941582926,15.268486384-8.891647953,21.704904815-3.953622042,6.438196938-8.892537207,11.697243442-14.820302509,15.775361005-5.927765302,4.081674578-12.907517756,6.119844106-20.939257361,6.119844106-8.030850352,0-15.076407581-1.846979978-21.130446911-5.546275456-6.055817838-3.695738463-11.090772404-8.604419001-15.106642207-14.724263107-4.015869803-6.118954852-7.045557229-13.193857454-9.082837503-21.225597059-1.536852743-6.048259181-2.493245119-12.276703398-2.872289518-18.686888843,23.362029123-.640929619,49.255096649-1.078553606,78.294343838-1.078553606h17.296207181c-.386825369,5.887415415-1.299310843,11.774775251-2.747127057,17.661468147ZM1233.194272729,82.609447518c2.166222064,2.294274599,3.471646526,5.228811878,3.919830401,8.796053178.445516114,3.570353689.669608052,7.586223491.669608052,12.046720154,0,4.464053678-.256994325,8.796497805-.7647582,13.003557158-.511320889,4.207059353-1.276079089,7.140707377-2.295163853,8.796497805-3.059032799,4.717490988-7.235857525,8.126889753-12.525138656,10.229974803-5.291059638,2.103974303-10.994733003,3.155961455-17.114577108,3.155961455-8.542171241,0-16.128394732-1.625555801-22.755113459-4.876667404-6.630275741-3.251111603-12.238798958-7.807647668-16.82823741-13.672275956-4.589438452-5.862849781-8.097544381-12.907517756-10.517203755-21.130446911-1.970252775-6.685854099-3.124392948-13.950001008-3.492432831-21.773377351h36.124487366c.654935365.119549047,1.353666476.19118955,2.08885699.19118955,11.676568293,0,22.183767943-.057579178,32.144965809-.152673748,5.210693333.93799594,8.995023698,2.731064911,11.344876655,5.385487268Z"/></g></g></svg>
