<svg width="545" height="50" viewBox="0 0 545 50" fill="none" xmlns="http://www.w3.org/2000/svg">
<path id="Vector" d="M544.696 26.0918H493.028C486.89 26.0918 481.479 26.0745 476.617 26.0454C477.144 25.2523 477.841 24.1963 478.711 22.8688C479.658 21.4259 480.638 19.9152 481.653 18.3357C482.667 16.7573 483.658 15.235 484.628 13.7688C485.597 12.3035 486.353 11.1416 486.894 10.2842C487.705 9.02202 488.46 7.89405 489.159 6.90122C489.858 5.90964 490.59 5.05226 491.357 4.33017C492.123 3.60918 492.957 3.02255 493.859 2.57104C494.76 2.1208 495.842 1.80459 497.105 1.62383V0.94721H481.484V1.62383C482.114 1.71476 482.769 1.81623 483.445 1.9284C484.121 2.04151 484.74 2.21063 485.305 2.43575C485.868 2.66197 486.329 2.97708 486.691 3.38296C487.051 3.789 487.232 4.35346 487.232 5.07444C487.232 5.52594 487.141 6.02165 486.961 6.56298C486.781 7.10431 486.566 7.63495 486.319 8.153C486.071 8.67199 485.812 9.16785 485.541 9.64154C485.271 10.1151 485.022 10.5327 484.797 10.8932C484.392 11.6152 483.793 12.6079 483.005 13.8702C482.216 15.1335 481.382 16.4529 480.503 17.8282C479.624 19.2047 478.755 20.5578 477.899 21.8878C477.043 23.2188 476.321 24.313 475.736 25.1693C475.014 23.9515 474.236 22.6659 473.402 21.3126C472.567 19.9595 471.745 18.6401 470.934 17.3547C470.122 16.0691 469.379 14.8513 468.702 13.701C468.026 12.5508 467.44 11.5698 466.944 10.7579C466.223 9.54007 465.534 8.33375 464.882 7.13814C464.227 5.94347 463.901 5.05226 463.901 4.46562C463.901 3.87993 464.081 3.41679 464.442 3.07855C464.802 2.74032 465.276 2.46957 465.862 2.26663C466.447 2.06369 467.079 1.9177 467.756 1.82677C468.432 1.73695 469.108 1.6693 469.784 1.62383V0.94721H449.294V1.62383C450.196 1.6693 450.995 1.9177 451.694 2.3681C452.393 2.81961 453.103 3.42843 453.825 4.19488C454.545 4.96243 455.255 5.88636 455.955 6.96902C456.653 8.05153 457.431 9.24714 458.288 10.5549C458.738 11.2315 459.302 12.1111 459.978 13.1936C460.655 14.2761 461.375 15.4379 462.143 16.678C462.909 17.9191 463.687 19.1931 464.476 20.5009C465.264 21.8096 465.986 22.9936 466.64 24.0529C467.084 24.7745 467.478 25.4113 467.829 25.9759C448.364 25.7826 438.276 25.4153 420.734 25.4153C420.486 25.4153 420.257 25.4438 420.038 25.483H407.171C407.171 25.4457 407.17 25.4095 407.17 25.3722C407.17 22.17 407.62 19.1138 408.522 16.2044C409.424 13.2951 410.709 10.724 412.377 8.49123C414.044 6.25857 416.073 4.47711 418.463 3.1462C420.852 1.81623 423.535 1.15031 426.511 1.15031C429.306 1.15031 431.83 1.62383 434.085 2.57104C436.339 3.51825 438.187 4.75949 439.63 6.2924C440.757 7.46583 441.816 8.95437 442.808 10.7579C443.8 12.5625 444.543 14.4791 445.04 16.5089H445.852V1.75913H445.243C444.657 2.52668 444.161 3.18002 443.755 3.72135C443.349 4.26253 443.101 4.53327 443.011 4.53327C442.92 4.53327 442.492 4.29635 441.726 3.82282C440.959 3.34914 439.867 2.83109 438.447 2.26663C437.026 1.70312 435.279 1.18413 433.205 0.710447C431.132 0.236921 428.742 0 426.037 0C421.529 0 417.696 0.6428 414.541 1.9284C411.385 3.21385 408.725 4.91697 406.561 7.03667C405.028 8.52505 403.755 10.1045 402.74 11.7727C401.726 13.442 400.936 15.088 400.373 16.7119C399.809 18.3357 399.415 19.8814 399.19 21.3466C398.964 22.8128 398.852 24.1101 398.852 25.2369C398.852 25.3199 398.856 25.4003 398.857 25.483H396.013C396.016 25.3104 396.025 25.1402 396.025 24.9663C396.025 21.7187 395.461 18.6063 394.334 15.6294C393.207 12.6523 391.584 10.0252 389.465 7.74696C387.346 5.46994 384.765 3.65371 381.722 2.30046C378.679 0.94721 375.241 0.270744 371.409 0.270744C367.893 0.270744 364.545 0.84574 361.367 1.99605C358.188 3.1462 355.416 4.79332 353.049 6.93504C350.682 9.07802 348.799 11.6945 347.402 14.7836C346.053 17.7662 345.362 21.1199 345.315 24.8373C332.741 24.3981 322.379 23.8439 313.272 23.5408V19.689C313.272 18.3357 313.282 17.0279 313.306 15.7647C313.328 14.5023 313.35 13.2169 313.373 11.908C313.395 10.6004 313.429 9.15731 313.475 7.57784C313.519 6.36004 313.801 5.37901 314.32 4.63474C314.838 3.89047 315.458 3.31532 316.18 2.90944C316.9 2.5034 317.668 2.21063 318.479 2.02987C319.291 1.85006 319.989 1.71476 320.575 1.62383V0.94721H299.003V1.62383C300.175 1.75913 301.29 2.02987 302.35 2.43575C303.409 2.84179 304.254 3.42843 304.886 4.19488C305.157 4.51109 305.359 4.93915 305.495 5.48048C305.63 6.02165 305.731 6.64227 305.799 7.34108C305.867 8.04098 305.901 8.7958 305.901 9.60771V23.3535C304.432 23.3303 302.992 23.3176 301.577 23.3176C300.653 24.5206 299.569 25.0903 298.047 25.3306C298.049 25.2087 298.056 25.0889 298.056 24.9663C298.056 21.7187 297.492 18.6063 296.365 15.6294C295.238 12.6523 293.615 10.0252 291.496 7.74696C289.377 5.46994 286.796 3.65371 283.753 2.30046C280.71 0.94721 277.272 0.270744 273.44 0.270744C269.924 0.270744 266.576 0.84574 263.398 1.99605C260.22 3.1462 257.447 4.79332 255.08 6.93504C252.713 9.07802 250.83 11.6945 249.433 14.7836C248.035 17.8737 247.337 21.3581 247.337 25.2369C247.337 25.2862 247.34 25.334 247.34 25.3831C245.612 25.1796 244.424 24.6199 243.423 23.3176C242.154 23.3176 240.865 23.328 239.554 23.3468V9.94595C239.554 9.22496 239.576 8.51451 239.621 7.81476C239.666 7.11596 239.733 6.4848 239.824 5.92018C239.914 5.35683 240.049 4.91697 240.23 4.60092C240.725 3.69917 241.491 3.01091 242.529 2.53722C243.566 2.06369 244.626 1.75913 245.708 1.62383V0.94721H225.352V1.62383C226.389 1.6693 227.425 1.83842 228.463 2.13134C229.499 2.42521 230.424 3.18002 231.236 4.39782C231.596 4.98461 231.81 5.74053 231.878 6.66445C231.946 7.58948 232.002 8.48069 232.047 9.33697C232.091 10.8255 232.115 12.1566 232.115 13.3289V23.5281C224.327 23.782 215.624 24.2248 205.402 24.625V17.3885C205.402 15.7203 205.413 13.9717 205.436 12.1449C205.458 10.318 205.492 8.61598 205.538 7.03667C205.582 5.99947 205.808 5.14209 206.214 4.46562C206.62 3.789 207.115 3.25931 207.702 2.87561C208.287 2.49286 208.941 2.21063 209.663 2.02987C210.383 1.85006 211.06 1.71476 211.692 1.62383V0.94721H191.539V1.62383C192.711 1.75913 193.759 1.99605 194.684 2.33428C195.607 2.67251 196.385 3.22549 197.017 3.99194C197.287 4.30799 197.49 4.74785 197.625 5.31136C197.761 5.87582 197.862 6.50698 197.93 7.20578C197.997 7.90553 198.031 8.6605 198.031 9.47226V24.8939C189.274 25.1878 179.455 25.4197 168.269 25.4717V13.3966C168.269 11.277 168.28 9.24714 168.303 7.30725C168.325 5.36831 168.337 3.83446 168.337 2.70634H172.8C173.431 2.70634 174.062 2.71798 174.693 2.74032C175.324 2.76344 176.068 2.77414 176.925 2.77414C178.638 2.81961 180.046 2.98872 181.152 3.28149C182.256 3.57536 183.282 4.1727 184.229 5.07444C184.589 5.39065 185.017 5.87582 185.514 6.52916C186.009 7.1836 186.516 7.89405 187.035 8.6605C187.553 9.4279 188.06 10.2504 188.557 11.1299C189.052 12.0095 189.48 12.8552 189.842 13.6671L190.45 13.4642L188.286 0.270744C187.249 0.586795 186.246 0.84574 185.277 1.04884C184.307 1.25178 183.079 1.37653 181.591 1.42089C179.877 1.42089 178.345 1.43254 176.993 1.45472C175.64 1.478 174.332 1.50018 173.07 1.52236C171.808 1.54565 170.501 1.55619 169.148 1.55619H156.299C155.036 1.55619 153.73 1.54565 152.377 1.52236C151.024 1.50018 149.491 1.46636 147.778 1.42089C146.11 1.37653 144.837 1.2856 143.958 1.15031C143.078 1.01486 142.12 0.8352 141.083 0.608977L139.055 13.4642L139.663 13.6671C139.934 12.8552 140.306 12.0211 140.779 11.1637C141.252 10.3075 141.748 9.50624 142.267 8.76197C142.785 8.0177 143.281 7.33054 143.755 6.69828C144.228 6.06712 144.644 5.59359 145.006 5.27754C145.952 4.37564 146.977 3.74464 148.083 3.38296C149.187 3.02255 150.595 2.81961 152.309 2.77414C153.165 2.77414 153.921 2.76344 154.575 2.74032C155.228 2.71798 155.848 2.70634 156.435 2.70634H160.898V25.483H130.776C130.792 24.3936 130.812 23.3246 130.838 22.2938C130.906 19.6551 130.984 17.3663 131.075 15.4264C131.165 13.3522 131.255 11.4007 131.345 9.57389C131.435 7.74696 131.638 6.49534 131.954 5.81871C132.495 4.51109 133.273 3.54154 134.287 2.90944C135.301 2.27828 136.642 1.85006 138.311 1.62383V0.94721H121.54V1.62383C123.704 1.93989 125.36 2.49286 126.51 3.28149C127.66 4.07123 128.46 5.09773 128.911 6.36004C129.271 7.30725 129.474 8.60434 129.519 10.2504C129.564 11.8975 129.587 13.6228 129.587 15.4264V25.483H127.245C127.137 25.4416 127.023 25.4153 126.904 25.4153C124.109 25.4153 121.329 25.4307 118.492 25.4566L97.5323 0.94721H83.8043V1.62383C84.5249 1.71476 85.2805 1.8606 86.0698 2.06369C86.8581 2.26663 87.5914 2.60487 88.2676 3.07855C88.9438 3.55208 89.5293 4.20652 90.026 5.04062C90.5214 5.87582 90.8375 6.94668 90.9727 8.25446C91.0171 9.56319 91.0403 10.668 91.0403 11.5698V19.8242C91.0403 21.9225 91.0284 23.9219 91.0067 25.8352C85.822 25.9036 80.1342 25.9672 73.7567 26.014C73.0721 24.1683 72.3762 22.2886 71.6658 20.3654C70.5162 17.2532 69.3094 14.0172 68.0479 10.6564C66.7851 7.29671 65.4548 3.74464 64.0579 0H63.5168C63.3362 0.316209 63.0774 0.722089 62.7391 1.21795C62.4011 1.71476 61.9838 2.23281 61.4881 2.77414C60.9916 3.31532 60.4167 3.83446 59.7637 4.33017C59.1096 4.82714 58.3773 5.2552 57.5658 5.61577L58.2421 7.10431C57.1601 9.63084 56.0105 12.3479 54.7932 15.2572C53.576 18.1666 52.347 21.0537 51.1076 23.9177C50.7915 24.6477 50.4777 25.3722 50.1661 26.0918H0.304378C-0.101459 26.0918 -0.101459 26.7009 0.304378 26.7009H49.9024C49.083 28.5932 48.278 30.4526 47.4895 32.2734C46.3166 34.9796 45.2579 37.3932 44.3112 39.5129C43.2736 41.8132 42.3944 43.5503 41.6738 44.7226C40.9521 45.8962 40.4332 46.6403 40.1184 46.9553C39.9832 47.1362 39.4981 47.4744 38.6644 47.9703C37.8296 48.4671 36.828 48.782 35.655 48.9177V49.6618H50.0593V48.9853C49.4729 48.8953 48.8526 48.7937 48.1996 48.6807C47.5456 48.5687 46.937 48.3878 46.3737 48.1396C45.8095 47.8919 45.3477 47.576 44.9873 47.1922C44.626 46.8096 44.4464 46.3241 44.4464 45.7376C44.4464 44.7459 44.9197 43.0311 45.8666 40.5955C46.4973 39.017 47.1282 37.4492 47.7601 35.893C48.1689 34.8845 50.0023 30.3726 51.494 26.7009H51.9723C57.0138 26.7009 61.6992 26.7127 66.0826 26.7329C67.3892 30.1612 69.1906 34.9197 69.6033 36.0623C70.1885 37.6861 70.7074 39.164 71.1586 40.4939C71.6087 41.8248 71.9585 42.9528 72.2069 43.8769C72.4541 44.8019 72.5788 45.467 72.5788 45.8729C72.5788 46.505 72.3643 47.0229 71.9363 47.4291C71.5073 47.835 71.0117 48.1512 70.4486 48.3762C69.8843 48.6024 69.3432 48.76 68.8256 48.85C68.3067 48.9406 67.9803 48.9853 67.845 48.9853V49.6618H99.9669V48.9853C98.1177 48.76 96.6639 48.3878 95.605 47.8687C94.5452 47.3508 93.7675 46.5727 93.2719 45.5347C92.8208 44.6326 92.5387 43.2574 92.4266 41.4073C92.3135 39.5582 92.2575 37.4832 92.2575 35.1826V26.9742C98.8842 27.0639 104.692 27.1599 110.095 27.2357C112.75 30.353 115.524 33.6065 118.429 37.0096C121.584 40.7085 125.078 44.7682 128.911 49.1882C129.361 49.6394 129.767 49.8647 130.128 49.8647C130.353 49.8647 130.522 49.8078 130.635 49.6957C130.747 49.5834 130.804 49.4365 130.804 49.2559V44.8579C130.804 43.2341 130.793 41.5999 130.771 39.9527C130.747 38.3066 130.737 36.6944 130.737 35.1149V30.785C130.737 29.5941 130.744 28.4414 130.754 27.3097H160.898V28.9583C160.898 30.3115 160.886 31.6201 160.864 32.8823C160.841 34.1455 160.819 35.2958 160.796 36.3329C160.773 37.3712 160.763 38.2053 160.763 38.8364C160.763 39.5582 160.751 40.3026 160.729 41.0691C160.705 41.8365 160.661 42.5469 160.594 43.2004C160.526 43.8549 160.435 44.4413 160.323 44.9595C160.21 45.4784 160.041 45.8506 159.816 46.0759C158.778 47.2491 157.719 47.9936 156.637 48.3085C155.555 48.6247 154.428 48.85 153.256 48.9853V49.6618H175.234V48.9853C174.242 48.8053 173.127 48.5347 171.887 48.1732C170.647 47.8127 169.689 47.1362 169.013 46.1435C168.651 45.6476 168.438 44.8019 168.37 43.6063C168.303 42.4116 168.269 41.16 168.269 39.8511V27.321C179.455 27.373 189.274 27.6049 198.031 27.8988V29.0259C198.031 30.3792 198.02 31.6984 197.997 32.9839C197.974 34.2692 197.952 35.4535 197.93 36.5358C197.906 37.6185 197.896 38.4758 197.896 39.107C197.896 39.8291 197.873 40.5848 197.828 41.3736C197.783 42.1634 197.727 42.8958 197.659 43.5723C197.592 44.2491 197.501 44.8475 197.389 45.3654C197.276 45.8846 197.129 46.2565 196.949 46.4817C196.408 47.1138 195.619 47.6437 194.582 48.0719C193.545 48.5011 192.463 48.8053 191.336 48.9853V49.6618H211.286V48.9853C210.339 48.8953 209.369 48.6468 208.378 48.2409C207.386 47.835 206.62 47.2491 206.079 46.4817C205.717 45.9859 205.514 45.1285 205.47 43.9109C205.425 42.6929 205.402 41.4306 205.402 40.1217V28.1677C215.624 28.5679 224.327 29.0107 232.115 29.2646V36.2652C232.115 37.8447 232.091 39.3776 232.047 40.8661C232.047 41.4073 232.035 41.9718 232.013 42.5576C231.99 43.1444 231.956 43.7076 231.912 44.2491C231.866 44.7903 231.81 45.2638 231.743 45.67C231.675 46.0759 231.596 46.3465 231.506 46.4817C231.145 47.0685 230.401 47.5981 229.274 48.0719C228.147 48.5454 226.749 48.85 225.082 48.9853V49.6618H245.843V48.9853C244.67 48.85 243.588 48.6024 242.597 48.2409C241.604 47.8803 240.815 47.2491 240.23 46.3465C239.959 45.9406 239.79 45.1858 239.723 44.0798C239.655 42.9751 239.621 41.7688 239.621 40.4602C239.621 38.8364 239.61 37.3479 239.587 35.9946C239.564 34.6414 239.554 33.3338 239.554 32.0705V29.4459C240.865 29.4647 242.154 29.4751 243.423 29.4751C244.44 28.1514 245.65 27.5941 247.425 27.3991C247.638 30.2208 248.269 32.8512 249.332 35.2842C250.661 38.3289 252.476 40.9454 254.776 43.1328C257.075 45.3211 259.757 47.0125 262.823 48.2072C265.888 49.4028 269.135 50 272.561 50C276.032 50 279.312 49.3912 282.4 48.1732C285.488 46.9553 288.193 45.2194 290.516 42.9635C292.837 40.7085 294.675 38.0476 296.027 34.9796C297.064 32.6286 297.7 30.1167 297.942 27.4469C299.519 27.6776 300.632 28.2448 301.577 29.4751C302.991 29.4751 304.431 29.4624 305.899 29.4393C305.897 30.6467 305.887 31.831 305.867 32.9839C305.843 34.2692 305.821 35.4535 305.799 36.5358C305.776 37.6185 305.765 38.4758 305.765 39.107C305.765 39.8291 305.731 40.5616 305.664 41.306C305.596 42.0501 305.517 42.7606 305.427 43.437C305.336 44.1138 305.213 44.7119 305.055 45.2301C304.897 45.7493 304.706 46.1435 304.48 46.4141C303.849 47.1362 302.981 47.6997 301.877 48.1056C300.771 48.5115 299.656 48.8053 298.529 48.9853V49.6618H341.945L344.447 35.724L343.771 35.5211C343.23 36.874 342.666 38.1713 342.08 39.4113C341.494 40.6525 340.772 41.8028 339.916 42.8619C339.059 43.9225 338.033 44.8579 336.84 45.67C335.644 46.4817 334.145 47.1362 332.342 47.6321C331.575 47.8583 330.696 48.0379 329.705 48.1732C328.713 48.3085 327.744 48.4101 326.797 48.4778C325.85 48.5454 324.982 48.5907 324.193 48.6131C323.404 48.6364 322.829 48.6468 322.469 48.6468C321.566 48.6468 320.665 48.5907 319.764 48.4778C318.861 48.3658 318.028 48.2305 317.262 48.0719C316.495 47.9143 315.842 47.723 315.3 47.4968C314.76 47.2715 314.398 47.0462 314.219 46.82C313.813 46.1888 313.576 45.2194 313.509 43.9109C313.441 42.6029 313.384 41.2276 313.339 39.7835C313.339 38.2506 313.328 36.8637 313.306 35.6224C313.282 34.3824 313.272 33.1761 313.272 32.0028V29.2519C322.408 28.9479 332.807 28.3911 345.434 27.9512C345.685 30.5654 346.307 33.0098 347.301 35.2842C348.63 38.3289 350.445 40.9454 352.745 43.1328C355.044 45.3211 357.726 47.0125 360.792 48.2072C363.858 49.4028 367.104 50 370.53 50C374.001 50 377.281 49.3912 380.37 48.1732C383.457 46.9553 386.162 45.2194 388.485 42.9635C390.806 40.7085 392.644 38.0476 393.996 34.9796C395.051 32.5886 395.689 30.0305 395.921 27.3097H398.922C399.108 30.3273 399.699 33.1013 400.711 35.6224C401.951 38.7124 403.731 41.329 406.054 43.471C408.375 45.614 411.227 47.2378 414.608 48.3425C417.99 49.4481 421.821 50 426.105 50C428.269 50 430.433 49.7738 432.597 49.3235C434.761 48.873 436.733 48.3202 438.514 47.6657C440.295 47.0125 441.805 46.3697 443.045 45.7376C444.285 45.1065 445.062 44.655 445.378 44.3844V34.5061C445.378 33.469 445.4 32.432 445.446 31.3939C445.49 30.3568 445.671 29.5904 445.987 29.0936C446.393 28.4624 447.046 28.0004 447.948 27.7065C448.849 27.4137 449.683 27.2223 450.45 27.1313V27.0549C455.727 26.9674 461.452 26.8785 468.35 26.8117C468.767 27.4799 469.021 27.8813 469.108 28.0109C469.108 30.4921 469.097 32.601 469.074 34.3368C469.051 36.0739 469.017 37.5741 468.973 38.8364C468.973 39.5582 468.961 40.3026 468.939 41.0691C468.916 41.8365 468.871 42.5576 468.804 43.2341C468.736 43.9109 468.645 44.5197 468.533 45.0609C468.42 45.6023 468.251 45.9859 468.026 46.2112C467.034 47.3391 466.099 48.0496 465.22 48.3425C464.34 48.6364 463.314 48.85 462.143 48.9853V49.6618H482.971V48.9853C481.979 48.8053 480.943 48.5571 479.861 48.2409C478.778 47.9259 477.899 47.2715 477.223 46.2788C476.862 45.7829 476.648 44.9152 476.581 43.6739C476.513 42.434 476.479 41.16 476.479 39.8511V26.7481C481.377 26.7186 486.832 26.7009 493.028 26.7009H544.696C545.101 26.7009 545.101 26.0918 544.696 26.0918ZM51.9723 26.0918H51.7415C52.4466 24.3563 53.0474 22.8774 53.3392 22.1584C54.2628 19.8813 55.1081 17.8398 55.8751 16.0352C56.6412 14.2318 57.2837 12.6977 57.8026 11.4345C58.3202 10.1722 58.7155 9.24714 58.986 8.6605C59.3918 9.65318 59.8989 10.927 60.5076 12.4832C61.1163 14.0394 61.7924 15.7541 62.5363 17.6253C63.2802 19.4975 64.0463 21.4481 64.8356 23.4778C65.032 23.9836 65.3903 24.9181 65.8264 26.061C61.5168 26.0805 56.9154 26.0918 51.9723 26.0918ZM90.9727 28.3155C90.9273 30.954 90.8597 33.2438 90.7697 35.1826C90.679 37.7538 90.5436 39.9644 90.364 41.8132C90.1834 43.6632 89.7775 45.0608 89.1469 46.0082C88.5149 47.0009 87.659 47.7113 86.5769 48.1396C86.233 48.276 85.889 48.392 85.5451 48.4986C85.3163 48.4236 85.0954 48.3394 84.8867 48.2409C84.1196 47.8803 83.4771 47.4628 82.9593 46.9893C82.4406 46.5157 82.0231 46.0535 81.7083 45.6023C81.3924 45.1518 81.1894 44.8359 81.0996 44.655C80.5587 43.4826 80.0736 42.434 79.6456 41.5089C79.2167 40.5848 78.755 39.4229 78.2594 38.0243C77.1774 35.1826 76.0953 32.3071 75.0133 29.3981C74.6925 28.5356 74.3678 27.6612 74.0411 26.7808C80.2978 26.8274 85.8886 26.89 90.9925 26.9573C90.9862 27.4128 90.9802 27.8708 90.9727 28.3155ZM92.2575 6.63063C95.3229 10.0591 98.2308 13.3744 100.981 16.5766C103.499 19.51 106.067 22.5123 108.681 25.5771C103.679 25.6494 98.3102 25.7366 92.2575 25.8185V6.63063ZM129.587 38.4302L120.111 27.3497C122.391 27.3673 124.643 27.3774 126.904 27.3774C127.034 27.3774 127.159 27.3528 127.276 27.3097H129.587V38.4302ZM288.622 33.5587C287.923 36.4005 286.875 38.961 285.478 41.2383C284.079 43.5163 282.333 45.3771 280.237 46.82C278.14 48.2642 275.672 48.9853 272.831 48.9853C269.992 48.9853 267.5 48.3318 265.359 47.0229C263.217 45.7153 261.437 43.9785 260.017 41.8132C258.596 39.6482 257.525 37.1449 256.804 34.3031C256.083 31.4615 255.722 28.5077 255.722 25.4399C255.722 22.5084 256.049 19.6106 256.703 16.7457C257.356 13.8819 258.37 11.3223 259.746 9.06638C261.121 6.81139 262.879 4.97297 265.021 3.55208C267.162 2.13134 269.698 1.42089 272.629 1.42089C275.513 1.42089 278.015 2.13134 280.135 3.55208C282.254 4.97297 284.023 6.82303 285.444 9.10021C286.864 11.3785 287.923 13.9157 288.622 16.7119C289.321 19.5091 289.67 22.2831 289.67 25.034C289.67 27.8756 289.321 30.7174 288.622 33.5587ZM354.672 16.7457C355.325 13.8819 356.339 11.3223 357.715 9.06638C359.09 6.81139 360.848 4.97297 362.99 3.55208C365.131 2.13134 367.667 1.42089 370.598 1.42089C373.483 1.42089 375.984 2.13134 378.104 3.55208C380.223 4.97297 381.993 6.82303 383.413 9.10021C384.833 11.3785 385.892 13.9157 386.591 16.7119C387.29 19.5091 387.639 22.2831 387.639 25.034C387.639 25.1836 387.635 25.3333 387.633 25.483H381.446C371.151 25.483 361.974 25.3273 353.696 25.0996C353.72 22.2842 354.043 19.4996 354.672 16.7457ZM386.591 33.5587C385.892 36.4005 384.844 38.961 383.447 41.2383C382.049 43.5163 380.302 45.3771 378.206 46.82C376.109 48.2642 373.641 48.9853 370.801 48.9853C367.961 48.9853 365.469 48.3318 363.328 47.0229C361.186 45.7153 359.406 43.9785 357.986 41.8132C356.565 39.6482 355.494 37.1449 354.773 34.3031C354.23 32.1632 353.892 29.9594 353.758 27.6914C362.02 27.4646 371.176 27.3097 381.446 27.3097H387.563C387.426 29.3928 387.103 31.4759 386.591 33.5587ZM436.113 29.2289C436.88 30.0406 437.341 31.0789 437.5 32.3411C437.657 33.6043 437.737 35.0252 437.737 36.6034C437.737 38.1829 437.646 39.7158 437.466 41.2044C437.285 42.6929 437.015 43.7309 436.654 44.3167C435.573 45.9859 434.095 47.1922 432.225 47.9363C430.354 48.6807 428.337 49.0529 426.172 49.0529C423.152 49.0529 420.469 48.4778 418.125 47.3275C415.78 46.1772 413.797 44.565 412.174 42.49C410.551 40.4156 409.31 37.923 408.455 35.0136C407.758 32.648 407.35 30.0778 407.22 27.3097H419.995C420.226 27.352 420.474 27.3774 420.734 27.3774C424.863 27.3774 428.579 27.357 432.101 27.3234C433.944 27.6552 435.282 28.2897 436.113 29.2289Z" fill="#E82356"/>
</svg>
