<?xml version="1.0" encoding="UTF-8"?>
<svg id="Layer_1" xmlns="http://www.w3.org/2000/svg" version="1.1" viewBox="0 0 32 32">
  <!-- Generator: Adobe Illustrator 29.8.3, SVG Export Plug-In . SVG Version: 2.1.1 Build 3)  -->
  <defs>
    <style>
      .st0 {
        fill: #e82356;
      }
    </style>
  </defs>
  <path class="st0" d="M31.2,15l-3.4-.8c-.8-5.2-4.9-9.3-10-10l-.8-3.4c-.1-.5-.7-.9-1.2-.7-.4,0-.6.4-.7.7l-.8,3.4c-5.2.8-9.3,4.9-10,10l-3.4.8c-.5.1-.9.7-.7,1.2,0,.4.4.6.7.7l3.4.8c.8,5.2,4.9,9.3,10,10l.8,3.4c.1.5.7.9,1.2.7.4,0,.6-.4.7-.7l.8-3.4c5.2-.8,9.3-4.9,10-10l3.4-.8c.5-.1.9-.7.7-1.2,0-.4-.4-.6-.7-.7h0ZM19.3,17.9l-1.9-1.9,1.9-1.9,7.6,1.9-7.6,1.9ZM12.7,17.9l-7.6-1.9,7.6-1.9,1.9,1.9-1.9,1.9ZM25.7,13.6l-5.9-1.5-1.5-5.9c3.6.9,6.5,3.7,7.4,7.4ZM17.9,12.7l-1.9,1.9-1.9-1.9,1.9-7.6,1.9,7.6ZM13.6,6.3l-1.5,5.9-5.9,1.5c.9-3.6,3.7-6.5,7.4-7.4ZM6.3,18.4l5.9,1.5,1.5,5.9c-3.6-.9-6.5-3.7-7.4-7.4h0ZM14.1,19.3l1.9-1.9,1.9,1.9-1.9,7.6-1.9-7.6ZM18.3,25.7l1.5-5.9,5.9-1.5c-.9,3.6-3.7,6.5-7.4,7.4h0Z"/>
</svg>